<mxfile host="Electron" agent="Mozilla/5.0 (Windows NT 10.0; Win64; x64) AppleWebKit/537.36 (KHTML, like Gecko) draw.io/24.7.5 Chrome/126.0.6478.183 Electron/31.3.0 Safari/537.36" version="24.7.5">
  <diagram name="Page-1" id="bbo8KGx2w2BWVhTpcHhJ">
    <mxGraphModel dx="3933" dy="2387" grid="1" gridSize="10" guides="1" tooltips="1" connect="1" arrows="1" fold="1" page="1" pageScale="1" pageWidth="1600" pageHeight="900" math="0" shadow="0">
      <root>
        <mxCell id="0" />
        <mxCell id="1" parent="0" />
        <mxCell id="_JDkWZ8Z8SrYuazbi2cv-1" value="" style="strokeWidth=1;shadow=0;dashed=0;align=center;html=1;shape=mxgraph.mockup.containers.browserWindow;rSize=0;strokeColor=#666666;strokeColor2=#008cff;strokeColor3=#c4c4c4;mainText=,;recursiveResize=0;container=0;movable=1;resizable=1;rotatable=1;deletable=1;editable=1;locked=0;connectable=1;" parent="1" vertex="1">
          <mxGeometry x="10" y="10" width="1580" height="1540" as="geometry" />
        </mxCell>
        <mxCell id="_JDkWZ8Z8SrYuazbi2cv-40" value="Devflix" style="text;html=1;points=[];align=left;verticalAlign=top;spacingTop=-4;fontSize=45;fontFamily=Verdana;" parent="1" vertex="1">
          <mxGeometry x="60" y="160" width="340" height="50" as="geometry" />
        </mxCell>
        <mxCell id="_JDkWZ8Z8SrYuazbi2cv-44" value="Photo de&lt;div&gt;l&#39;acteur&lt;/div&gt;" style="strokeWidth=1;shadow=0;dashed=0;align=left;html=1;shape=mxgraph.mockup.text.callout;linkText=;textSize=17;textColor=#666666;callDir=SW;callStyle=line;fontSize=17;fontColor=#ffffff;align=left;verticalAlign=bottom;strokeColor=#001DBC;fontFamily=Helvetica;fillColor=#0050ef;" parent="1" vertex="1">
          <mxGeometry x="-90" y="580" width="360" height="70" as="geometry" />
        </mxCell>
        <mxCell id="_JDkWZ8Z8SrYuazbi2cv-2" value="Page 1" style="strokeWidth=1;shadow=0;dashed=0;align=center;html=1;shape=mxgraph.mockup.containers.anchor;fontSize=17;fontColor=#666666;align=left;whiteSpace=wrap;" parent="1" vertex="1">
          <mxGeometry x="70" y="22" width="110" height="26" as="geometry" />
        </mxCell>
        <mxCell id="_JDkWZ8Z8SrYuazbi2cv-3" value="https://www.devflix.com/acteur/:id_acteur" style="strokeWidth=1;shadow=0;dashed=0;align=center;html=1;shape=mxgraph.mockup.containers.anchor;rSize=0;fontSize=17;fontColor=#666666;align=left;" parent="1" vertex="1">
          <mxGeometry x="140" y="70" width="250" height="26" as="geometry" />
        </mxCell>
        <mxCell id="_JDkWZ8Z8SrYuazbi2cv-33" value="" style="swimlane;shape=mxgraph.bootstrap.anchor;strokeColor=#999999;fillColor=#ffffff;fontColor=#666666;childLayout=stackLayout;horizontal=0;startSize=0;horizontalStack=1;resizeParent=1;resizeParentMax=0;resizeLast=0;collapsible=0;marginBottom=0;whiteSpace=wrap;html=1;" parent="1" vertex="1">
          <mxGeometry x="1080" y="150" width="480" height="30" as="geometry" />
        </mxCell>
        <mxCell id="_JDkWZ8Z8SrYuazbi2cv-36" value="Catalogue" style="text;strokeColor=inherit;align=center;verticalAlign=middle;spacingLeft=10;spacingRight=10;overflow=hidden;points=[[0,0.5],[1,0.5]];portConstraint=eastwest;rotatable=0;whiteSpace=wrap;html=1;fillColor=inherit;fontColor=inherit;fontSize=17;" parent="_JDkWZ8Z8SrYuazbi2cv-33" vertex="1">
          <mxGeometry width="120" height="30" as="geometry" />
        </mxCell>
        <mxCell id="_JDkWZ8Z8SrYuazbi2cv-37" value="Acteurs" style="text;strokeColor=#23445d;align=center;verticalAlign=middle;spacingLeft=10;spacingRight=10;overflow=hidden;points=[[0,0.5],[1,0.5]];portConstraint=eastwest;rotatable=0;whiteSpace=wrap;html=1;fillColor=#bac8d3;fontSize=17;" parent="_JDkWZ8Z8SrYuazbi2cv-33" vertex="1">
          <mxGeometry x="120" width="120" height="30" as="geometry" />
        </mxCell>
        <mxCell id="_JDkWZ8Z8SrYuazbi2cv-38" value="Mon compte" style="text;strokeColor=inherit;align=center;verticalAlign=middle;spacingLeft=10;spacingRight=10;overflow=hidden;points=[[0,0.5],[1,0.5]];portConstraint=eastwest;rotatable=0;whiteSpace=wrap;html=1;fillColor=inherit;fontColor=inherit;fontSize=17;" parent="_JDkWZ8Z8SrYuazbi2cv-33" vertex="1">
          <mxGeometry x="240" width="120" height="30" as="geometry" />
        </mxCell>
        <mxCell id="_JDkWZ8Z8SrYuazbi2cv-39" value="Déconnexion&amp;nbsp;" style="text;strokeColor=#6F0000;align=center;verticalAlign=middle;spacingLeft=10;spacingRight=10;overflow=hidden;points=[[0,0.5],[1,0.5]];portConstraint=eastwest;rotatable=0;whiteSpace=wrap;html=1;fillColor=#a20025;fontColor=#ffffff;fontSize=17;" parent="_JDkWZ8Z8SrYuazbi2cv-33" vertex="1">
          <mxGeometry x="360" width="120" height="30" as="geometry" />
        </mxCell>
        <mxCell id="_JDkWZ8Z8SrYuazbi2cv-43" value="" style="shape=actor;whiteSpace=wrap;html=1;fillColor=none;" parent="1" vertex="1">
          <mxGeometry x="220" y="320" width="230" height="380" as="geometry" />
        </mxCell>
        <mxCell id="_JDkWZ8Z8SrYuazbi2cv-45" value="&lt;font style=&quot;font-size: 17px;&quot;&gt;Lorem ipsum dolor sit amet, consectetur adipisicing elit, sed do eiusmod tempor incididunt ut labore et dolore magna aliqua. Ut enim ad minim veniam, quis nostrud exercitation ullamco laboris nisi ut aliquip ex ea commodo consequat. Duis aute irure dolor in reprehenderit in voluptate velit esse cillum dolore eu fugiat nulla pariatur. Excepteur sint occaecat cupidatat non proident, sunt in culpa qui officia deserunt mollit anim id est laborum.&lt;br&gt;Sed ut perspiciatis unde omnis iste natus error sit voluptatem accusantium doloremque laudantium, totam rem aperiam, eaque ipsa quae ab illo inventore veritatis et quasi architecto beatae vitae dicta sunt explicabo. Nemo enim ipsam voluptatem quia voluptas sit aspernatur aut odit aut fugit, sed quia consequuntur magni dolores eos qui ratione voluptatem sequi nesciunt. Neque porro quisquam est, qui dolorem ipsum quia dolor sit amet, consectetur, adipisci velit, sed quia non numquam eius modi tempora incidunt ut labore et dolore magnam aliquam quaerat voluptatem. Ut enim ad minima veniam, quis nostrum exercitationem ullam corporis suscipit laboriosam, nisi ut aliquid ex ea commodi consequatur? Quis autem vel eum iure reprehenderit qui in ea voluptate velit esse quam nihil molestiae consequatur, vel illum qui dolorem eum fugiat quo voluptas nulla pariatur?&lt;/font&gt;" style="text;spacingTop=-5;whiteSpace=wrap;html=1;align=left;fontSize=12;fontFamily=Helvetica;fillColor=none;strokeColor=none;" parent="1" vertex="1">
          <mxGeometry x="660" y="370" width="680" height="350" as="geometry" />
        </mxCell>
        <mxCell id="_JDkWZ8Z8SrYuazbi2cv-46" value="Bio&lt;div&gt;de l&#39;acteur&lt;/div&gt;" style="strokeWidth=1;shadow=0;dashed=0;align=left;html=1;shape=mxgraph.mockup.text.callout;linkText=;textSize=17;textColor=#666666;callDir=SE;callStyle=line;fontSize=17;fontColor=#ffffff;align=right;verticalAlign=bottom;strokeColor=#001DBC;fontFamily=Helvetica;fillColor=#0050ef;" parent="1" vertex="1">
          <mxGeometry x="1270" y="650" width="480" height="120" as="geometry" />
        </mxCell>
        <mxCell id="_JDkWZ8Z8SrYuazbi2cv-47" value="Nom de l&#39;acteur" style="text;align=center;fontStyle=1;verticalAlign=middle;spacingLeft=3;spacingRight=3;strokeColor=none;rotatable=0;points=[[0,0.5],[1,0.5]];portConstraint=eastwest;html=1;fontSize=26;" parent="1" vertex="1">
          <mxGeometry x="670" y="300" width="230" height="26" as="geometry" />
        </mxCell>
        <mxCell id="_JDkWZ8Z8SrYuazbi2cv-67" value="Mentions Legales" style="fillColor=none;strokeColor=none;html=1;fontColor=#0057D8;align=center;verticalAlign=middle;fontStyle=0;fontSize=17;" parent="1" vertex="1">
          <mxGeometry x="105" y="1450" width="250" height="75" as="geometry" />
        </mxCell>
        <mxCell id="_JDkWZ8Z8SrYuazbi2cv-68" value="FAQ" style="fillColor=none;strokeColor=none;html=1;fontColor=#0057D8;align=center;verticalAlign=middle;fontStyle=0;fontSize=17;fontFamily=Helvetica;" parent="1" vertex="1">
          <mxGeometry x="495" y="1450" width="250" height="75" as="geometry" />
        </mxCell>
        <mxCell id="_JDkWZ8Z8SrYuazbi2cv-69" value="Contacts" style="fillColor=none;strokeColor=none;html=1;fontColor=#0057D8;align=center;verticalAlign=middle;fontStyle=0;fontSize=17;fontFamily=Helvetica;" parent="1" vertex="1">
          <mxGeometry x="875" y="1450" width="250" height="75" as="geometry" />
        </mxCell>
        <mxCell id="_JDkWZ8Z8SrYuazbi2cv-70" value="Carrière&amp;nbsp;" style="fillColor=none;strokeColor=none;html=1;fontColor=#0057D8;align=center;verticalAlign=middle;fontStyle=0;fontSize=17;fontFamily=Helvetica;" parent="1" vertex="1">
          <mxGeometry x="1245" y="1450" width="250" height="75" as="geometry" />
        </mxCell>
        <mxCell id="_JDkWZ8Z8SrYuazbi2cv-71" value="C4" style="strokeWidth=1;shadow=0;dashed=0;align=center;html=1;shape=mxgraph.mockup.text.callout;linkText=;textSize=17;textColor=#666666;callDir=NE;callStyle=line;fontSize=17;align=right;verticalAlign=top;strokeColor=#005700;fillColor=#008a00;fontColor=#ffffff;" parent="1" vertex="1">
          <mxGeometry x="1260" y="-80" width="160" height="230" as="geometry" />
        </mxCell>
        <mxCell id="_JDkWZ8Z8SrYuazbi2cv-72" value="C1" style="strokeWidth=1;shadow=0;dashed=0;align=center;html=1;shape=mxgraph.mockup.text.callout;linkText=;textSize=17;textColor=#666666;callDir=NE;callStyle=line;fontSize=17;align=right;verticalAlign=top;strokeColor=#005700;fillColor=#008a00;fontColor=#ffffff;" parent="1" vertex="1">
          <mxGeometry x="1140" y="-80" width="160" height="230" as="geometry" />
        </mxCell>
        <mxCell id="_JDkWZ8Z8SrYuazbi2cv-75" value="Retour" style="rounded=1;fillColor=#F1F2F4;strokeColor=none;html=1;whiteSpace=wrap;fontColor=#596780;align=center;verticalAlign=middle;fontStyle=0;fontSize=17;sketch=0;fontFamily=Helvetica;" parent="1" vertex="1">
          <mxGeometry x="1370" y="1380" width="200" height="60" as="geometry" />
        </mxCell>
        <mxCell id="_JDkWZ8Z8SrYuazbi2cv-77" value="C17" style="strokeWidth=1;shadow=0;dashed=0;align=center;html=1;shape=mxgraph.mockup.text.callout;linkText=;textSize=17;textColor=#666666;callDir=NE;callStyle=line;fontSize=17;align=right;verticalAlign=top;strokeColor=#005700;fillColor=#008a00;fontColor=#ffffff;" parent="1" vertex="1">
          <mxGeometry x="1380" y="-80" width="160" height="230" as="geometry" />
        </mxCell>
        <mxCell id="_JDkWZ8Z8SrYuazbi2cv-78" value="Editer cette fiche" style="rounded=1;fillColor=#a20025;strokeColor=#6F0000;html=1;whiteSpace=wrap;fontColor=#ffffff;align=center;verticalAlign=middle;fontStyle=0;fontSize=17;sketch=0;fontFamily=Helvetica;" parent="1" vertex="1">
          <mxGeometry x="1160" y="1380" width="200" height="60" as="geometry" />
        </mxCell>
        <mxCell id="_JDkWZ8Z8SrYuazbi2cv-81" value="C46" style="strokeWidth=1;shadow=0;dashed=0;align=center;html=1;shape=mxgraph.mockup.text.callout;linkText=;textSize=17;textColor=#666666;callDir=NE;callStyle=line;fontSize=17;align=right;verticalAlign=top;strokeColor=#005700;fillColor=#008a00;fontColor=#ffffff;" parent="1" vertex="1">
          <mxGeometry x="1500" y="-80" width="160" height="230" as="geometry" />
        </mxCell>
        <mxCell id="_JDkWZ8Z8SrYuazbi2cv-48" value="" style="shape=mxgraph.mockup.containers.marginRect;rectMarginTop=10;strokeColor=#666666;strokeWidth=8;rounded=1;arcSize=5;recursiveResize=0;html=1;whiteSpace=wrap;" parent="1" vertex="1">
          <mxGeometry x="20" y="800" width="1560" height="560" as="geometry" />
        </mxCell>
        <mxCell id="_JDkWZ8Z8SrYuazbi2cv-49" value="Filmographie" style="shape=rect;strokeColor=#3700CC;fillColor=#6a00ff;strokeWidth=1;dashed=0;rounded=1;arcSize=20;fontSize=22;spacing=2;spacingTop=-2;align=left;autosize=1;spacingLeft=4;resizeWidth=0;resizeHeight=0;perimeter=none;html=1;whiteSpace=wrap;fontColor=#ffffff;" parent="_JDkWZ8Z8SrYuazbi2cv-48" vertex="1">
          <mxGeometry x="10" width="145" height="40" as="geometry" />
        </mxCell>
        <mxCell id="_JDkWZ8Z8SrYuazbi2cv-50" value="Nom, genre, realisateur" style="html=1;shadow=0;dashed=0;shape=mxgraph.bootstrap.rrect;rSize=5;strokeColor=#DFDFDF;html=1;whiteSpace=wrap;fillColor=#ffffff;fontColor=#000000;verticalAlign=bottom;align=left;spacing=20;fontSize=20;" parent="_JDkWZ8Z8SrYuazbi2cv-48" vertex="1">
          <mxGeometry x="30" y="70" width="290" height="380" as="geometry" />
        </mxCell>
        <mxCell id="_JDkWZ8Z8SrYuazbi2cv-51" value="Affiche du film" style="html=1;shadow=0;dashed=0;shape=mxgraph.bootstrap.topButton;rSize=5;perimeter=none;whiteSpace=wrap;fillColor=#868E96;strokeColor=#DFDFDF;fontColor=#DEE2E6;resizeWidth=1;fontSize=20;" parent="_JDkWZ8Z8SrYuazbi2cv-50" vertex="1">
          <mxGeometry width="290" height="290" relative="1" as="geometry" />
        </mxCell>
        <mxCell id="_JDkWZ8Z8SrYuazbi2cv-53" value="Nom, genre, realisateur" style="html=1;shadow=0;dashed=0;shape=mxgraph.bootstrap.rrect;rSize=5;strokeColor=#DFDFDF;html=1;whiteSpace=wrap;fillColor=#ffffff;fontColor=#000000;verticalAlign=bottom;align=left;spacing=20;fontSize=20;" parent="_JDkWZ8Z8SrYuazbi2cv-48" vertex="1">
          <mxGeometry x="370" y="70" width="290" height="380" as="geometry" />
        </mxCell>
        <mxCell id="_JDkWZ8Z8SrYuazbi2cv-54" value="Affiche du film" style="html=1;shadow=0;dashed=0;shape=mxgraph.bootstrap.topButton;rSize=5;perimeter=none;whiteSpace=wrap;fillColor=#868E96;strokeColor=#DFDFDF;fontColor=#DEE2E6;resizeWidth=1;fontSize=20;" parent="_JDkWZ8Z8SrYuazbi2cv-53" vertex="1">
          <mxGeometry width="290" height="290" relative="1" as="geometry" />
        </mxCell>
        <mxCell id="_JDkWZ8Z8SrYuazbi2cv-59" value="Nom, genre, r" style="html=1;shadow=0;dashed=0;shape=mxgraph.bootstrap.rrect;rSize=5;strokeColor=#DFDFDF;html=1;whiteSpace=wrap;fillColor=#ffffff;fontColor=#000000;verticalAlign=bottom;align=left;spacing=20;fontSize=20;" parent="_JDkWZ8Z8SrYuazbi2cv-48" vertex="1">
          <mxGeometry x="1390" y="70" width="170" height="380" as="geometry" />
        </mxCell>
        <mxCell id="_JDkWZ8Z8SrYuazbi2cv-60" value="&amp;nbsp; &amp;nbsp; &amp;nbsp; &amp;nbsp; &amp;nbsp; &amp;nbsp; Affiche du" style="html=1;shadow=0;dashed=0;shape=mxgraph.bootstrap.topButton;rSize=5;perimeter=none;whiteSpace=wrap;fillColor=#868E96;strokeColor=#DFDFDF;fontColor=#DEE2E6;resizeWidth=1;fontSize=20;" parent="_JDkWZ8Z8SrYuazbi2cv-59" vertex="1">
          <mxGeometry width="169.99999999999997" height="290" relative="1" as="geometry" />
        </mxCell>
        <mxCell id="_JDkWZ8Z8SrYuazbi2cv-55" value="Nom, genre, realisateur" style="html=1;shadow=0;dashed=0;shape=mxgraph.bootstrap.rrect;rSize=5;strokeColor=#DFDFDF;html=1;whiteSpace=wrap;fillColor=#ffffff;fontColor=#000000;verticalAlign=bottom;align=left;spacing=20;fontSize=20;" parent="_JDkWZ8Z8SrYuazbi2cv-48" vertex="1">
          <mxGeometry x="710" y="70" width="290" height="380" as="geometry" />
        </mxCell>
        <mxCell id="_JDkWZ8Z8SrYuazbi2cv-56" value="Affiche du film" style="html=1;shadow=0;dashed=0;shape=mxgraph.bootstrap.topButton;rSize=5;perimeter=none;whiteSpace=wrap;fillColor=#868E96;strokeColor=#DFDFDF;fontColor=#DEE2E6;resizeWidth=1;fontSize=20;" parent="_JDkWZ8Z8SrYuazbi2cv-55" vertex="1">
          <mxGeometry width="290" height="290" relative="1" as="geometry" />
        </mxCell>
        <mxCell id="_JDkWZ8Z8SrYuazbi2cv-57" value="Nom, genre, realisateur" style="html=1;shadow=0;dashed=0;shape=mxgraph.bootstrap.rrect;rSize=5;strokeColor=#DFDFDF;html=1;whiteSpace=wrap;fillColor=#ffffff;fontColor=#000000;verticalAlign=bottom;align=left;spacing=20;fontSize=20;" parent="_JDkWZ8Z8SrYuazbi2cv-48" vertex="1">
          <mxGeometry x="1050" y="70" width="290" height="380" as="geometry" />
        </mxCell>
        <mxCell id="_JDkWZ8Z8SrYuazbi2cv-58" value="Affiche du film" style="html=1;shadow=0;dashed=0;shape=mxgraph.bootstrap.topButton;rSize=5;perimeter=none;whiteSpace=wrap;fillColor=#868E96;strokeColor=#DFDFDF;fontColor=#DEE2E6;resizeWidth=1;fontSize=20;" parent="_JDkWZ8Z8SrYuazbi2cv-57" vertex="1">
          <mxGeometry width="290" height="290" relative="1" as="geometry" />
        </mxCell>
        <mxCell id="_JDkWZ8Z8SrYuazbi2cv-82" value="" style="group" parent="_JDkWZ8Z8SrYuazbi2cv-48" vertex="1" connectable="0">
          <mxGeometry x="30" y="490" width="1500" height="30" as="geometry" />
        </mxCell>
        <mxCell id="_JDkWZ8Z8SrYuazbi2cv-65" value="" style="html=1;verticalLabelPosition=bottom;labelBackgroundColor=#ffffff;verticalAlign=top;shadow=0;dashed=0;strokeWidth=17;shape=mxgraph.ios7.misc.scroll_(horizontal);fillColor=#eeeeee;fillStyle=solid;strokeColor=#36393d;perimeterSpacing=7;" parent="_JDkWZ8Z8SrYuazbi2cv-82" vertex="1">
          <mxGeometry width="1500" height="30" as="geometry" />
        </mxCell>
        <mxCell id="_JDkWZ8Z8SrYuazbi2cv-66" value="" style="html=1;verticalLabelPosition=bottom;labelBackgroundColor=#ffffff;verticalAlign=top;shadow=0;dashed=0;strokeWidth=17;shape=mxgraph.ios7.misc.scroll_(horizontal);fillStyle=solid;perimeterSpacing=7;fillColor=#4F4F4F;strokeColor=#36393d;" parent="_JDkWZ8Z8SrYuazbi2cv-82" vertex="1">
          <mxGeometry x="60" y="5" width="110" height="20" as="geometry" />
        </mxCell>
        <mxCell id="_JDkWZ8Z8SrYuazbi2cv-76" value="C8" style="strokeWidth=1;shadow=0;dashed=0;align=center;html=1;shape=mxgraph.mockup.text.callout;linkText=;textSize=17;textColor=#666666;callDir=NE;callStyle=line;fontSize=17;align=right;verticalAlign=top;strokeColor=#005700;fillColor=#008a00;fontColor=#ffffff;" parent="1" vertex="1">
          <mxGeometry x="1470" y="1260" width="260" height="120" as="geometry" />
        </mxCell>
        <mxCell id="_JDkWZ8Z8SrYuazbi2cv-79" value="C36" style="strokeWidth=1;shadow=0;dashed=0;align=center;html=1;shape=mxgraph.mockup.text.callout;linkText=;textSize=17;textColor=#666666;callDir=NE;callStyle=line;fontSize=17;align=right;verticalAlign=top;strokeColor=#005700;fillColor=#008a00;fontColor=#ffffff;" parent="1" vertex="1">
          <mxGeometry x="1260" y="1230" width="470" height="150" as="geometry" />
        </mxCell>
        <mxCell id="_JDkWZ8Z8SrYuazbi2cv-52" value="Carte lien&lt;div&gt;vers le film&lt;/div&gt;" style="strokeWidth=1;shadow=0;dashed=0;align=center;html=1;shape=mxgraph.mockup.text.callout;linkText=;textSize=17;textColor=#666666;callDir=SW;callStyle=line;fontSize=17;fontColor=#ffffff;align=left;verticalAlign=bottom;strokeColor=#001DBC;fillColor=#0050ef;" parent="1" vertex="1">
          <mxGeometry x="-100" y="1070" width="230" height="70" as="geometry" />
        </mxCell>
        <mxCell id="_JDkWZ8Z8SrYuazbi2cv-73" value="C2" style="strokeWidth=1;shadow=0;dashed=0;align=right;html=1;shape=mxgraph.mockup.text.callout;linkText=;textSize=17;textColor=#666666;callDir=NW;callStyle=line;fontSize=17;fontColor=#ffffff;align=left;verticalAlign=top;strokeColor=#005700;fontFamily=Helvetica;fillColor=#008a00;" parent="1" vertex="1">
          <mxGeometry x="-70" y="990" width="200" height="80" as="geometry" />
        </mxCell>
        <mxCell id="_JDkWZ8Z8SrYuazbi2cv-80" value="Scrolling&lt;div&gt;horizontale&amp;nbsp;&lt;/div&gt;" style="strokeWidth=1;shadow=0;dashed=0;align=center;html=1;shape=mxgraph.mockup.text.callout;linkText=;textSize=17;textColor=#666666;callDir=SW;callStyle=line;fontSize=17;fontColor=#ffffff;align=left;verticalAlign=bottom;strokeColor=#001DBC;fillColor=#0050ef;" parent="1" vertex="1">
          <mxGeometry x="-110" y="1300" width="280" height="80" as="geometry" />
        </mxCell>
        <mxCell id="Y25YfUCwH1jz808kgg33-3" value="" style="group" vertex="1" connectable="0" parent="1">
          <mxGeometry x="30" y="-170" width="285" height="140" as="geometry" />
        </mxCell>
        <mxCell id="Y25YfUCwH1jz808kgg33-1" value="" style="rounded=0;whiteSpace=wrap;html=1;" vertex="1" parent="Y25YfUCwH1jz808kgg33-3">
          <mxGeometry width="260" height="140" as="geometry" />
        </mxCell>
        <mxCell id="Y25YfUCwH1jz808kgg33-2" value="&lt;font style=&quot;font-size: 24px;&quot;&gt;Vue: Acteur&lt;/font&gt;&lt;div style=&quot;font-size: 24px;&quot;&gt;&lt;font style=&quot;font-size: 24px;&quot;&gt;Auteur: Mickael&lt;/font&gt;&lt;/div&gt;&lt;div style=&quot;font-size: 24px;&quot;&gt;&lt;font style=&quot;font-size: 24px;&quot;&gt;Création: 24-08-01&lt;/font&gt;&lt;/div&gt;&lt;div style=&quot;font-size: 24px;&quot;&gt;&lt;font style=&quot;font-size: 24px;&quot;&gt;Modification: 24-08-11&lt;/font&gt;&lt;/div&gt;" style="text;html=1;whiteSpace=wrap;overflow=hidden;rounded=0;" vertex="1" parent="Y25YfUCwH1jz808kgg33-3">
          <mxGeometry x="15" width="270" height="140" as="geometry" />
        </mxCell>
      </root>
    </mxGraphModel>
  </diagram>
</mxfile>
